<!-- Created with Inkscape (http://www.inkscape.org/) -->
<svg xmlns:rdf="http://www.w3.org/1999/02/22-rdf-syntax-ns#" xmlns="http://www.w3.org/2000/svg" height="392.05" width="321.45" version="1.1" xmlns:cc="http://creativecommons.org/ns#" xmlns:dc="http://purl.org/dc/elements/1.1/">
	<metadata>
		<rdf:RDF>
			<cc:Work rdf:about="">
				<dc:format>image/svg+xml</dc:format>
				<dc:type rdf:resource="http://purl.org/dc/dcmitype/StillImage"/>
				<dc:title/>
			</cc:Work>
		</rdf:RDF>
	</metadata>
	<g transform="translate(-214.27,-336.34)">
		<path fill-rule="evenodd" fill="#961B20" d="m343.77,386.63,0,55.62c-12.25,0.12-21.46-0.57-29.82,3.12-22.87,10.09-27.01,47.97-12.01,67.2,8.64,11.08,22.05,13.8,41.83,12.46v56.38h-21.26c-54.31,0-77.42-50.63-79.75-83.52-4.97-67.23,30.86-111.27,79.45-111.26h21.56m60.52,93c10.31-0.31,17.45,1.17,23.58-3.56,8.21-6.33,9.9-26.36,4.01-36.04-5.55-9.13-15.21-8.01-27.15-8.02-1.04,14.99-0.15,31.9-0.44,47.62m14.72-93.02c17.02,0.23,31.85,2.07,42.24,11.58,29.61,27.11,26.38,100.6-6.68,120.6-11.64,7.05-29.65,6.68-49.02,6.23l0.1,56.28h-46.28v-194.69m126.35-50.27,48.75,141.69c1.68,5.39,1.61,5.31,0.14,10.92l-63.58,239.44h-256.76l24.03-117.48h216.72l61.22-126c0.41-1.18,0.43-1.88,0.1-2.96l-49.3-145.61"/>
		<path fill="#FFF" d="m456.3,683.19c-2.92,0-5.78,0.54-6.55,4.27-0.87,4.2,1.98,4.56,4.95,4.56h3.79l1.81-8.83h-4zm-3.26,32.12,2.89-14.05h-3.24c-1.78,0-3.29,0.24-4.55,2.14-1.7,2.49-3.19,8.94-4.45,11.91h-15.08c2.34-4.03,3.5-10.43,6.62-14.82,1.8-2.19,4.03-3.85,7.29-4.44v-0.12c-5.11-1.42-8.07-4.62-6.77-10.96,1.63-7.94,7.84-11.02,16.87-11.02h23.4l-8.52,41.36h-14.48zm-39.89,0,6.18-29.98h-0.11l-13.36,29.98h-21.3l8.52-41.36h12.59l-6,29.15h0.11l12.81-29.15h21.68l-8.52,41.36h-12.6zm-31.85-0.95c-2.88,0.83-7.05,1.66-10.72,1.66-12.54,0-21.11-7.23-18.07-21.98,2.85-13.87,14.77-20.8,26.88-20.8,3.99,0,6.26,0.53,10,1.3l-2.25,10.91c-2.2-0.83-4.49-1.55-6.92-1.55-6.17,0-11.56,3.62-12.95,10.37-1.46,7.12,2.12,10.73,8.12,10.73,2.65,0,5.31-0.59,8.17-1.6l-2.26,10.96zm-35.02,0c-2.88,0.83-7.05,1.66-10.72,1.66-12.54,0-21.11-7.23-18.07-21.98,2.85-13.87,14.77-20.8,26.87-20.8,4,0,6.27,0.53,10,1.3l-2.24,10.91c-2.21-0.83-4.49-1.55-6.93-1.55-6.16,0-11.55,3.62-12.94,10.37-1.46,7.12,2.12,10.73,8.12,10.73,2.64,0,5.31-0.59,8.16-1.6l-2.25,10.96zm-54.4-8.29c5.73,0,7.34-7,8.3-11.44,0.74-3.85,1.93-11.44-3.59-11.44-5.35,0-7.34,7.59-8.13,11.44-0.92,4.44-1.76,11.44,3.42,11.44m-2.04,9.95c-13.19,0-19.42-7.29-16.52-21.39,2.86-13.87,12.13-21.39,25.32-21.39s19.53,7.52,16.68,21.39c-2.9,14.1-12.29,21.39-25.48,21.39m-43.59-22.22h3.19c3.46,0,7.12-0.71,8.07-5.33,0.9-4.39-2.5-4.92-6.01-4.92h-3.13l-2.12,10.25zm-10.02-19.85h24.91c5.9,0,13.21,3.08,10.92,14.22-2.22,10.78-9.46,15.23-17.03,15.23h-10.38l-2.45,11.91h-14.49l8.52-41.36zm238.66-39.32c-1.33,0-2.65,0.29-3.05,2.34-0.46,2.3,0.83,2.49,2.19,2.49h1.72l0.96-4.83h-1.82zm-1.97,17.6,1.53-7.7h-1.48c-0.81,0-1.5,0.13-2.1,1.17-0.81,1.37-1.59,4.91-2.21,6.53h-6.87c1.13-2.21,1.75-5.72,3.23-8.12,0.86-1.2,1.9-2.11,3.4-2.44v-0.1c-2.31-0.78-3.61-2.53-2.93-6.01,0.86-4.35,3.73-6.04,7.85-6.04h10.67l-4.5,22.67h-6.6zm-44.44-4.68h1.73c1.2,0,2.62-0.58,2.98-2.34,0.38-1.95-0.78-2.3-2.01-2.3h-1.78l-0.92,4.64zm1.85-9.31h1.65c1.16,0,2.5-0.46,2.84-2.19,0.34-1.68-0.64-2.2-1.82-2.2h-1.8l-0.87,4.39zm-4.49-8.68h10.82c2.98,0,5.65,1.27,4.79,5.59-0.61,3.11-2.19,4.77-4.64,5.55v0.1c2.3,0.42,3.29,2.88,2.84,5.16-1.13,5.71-4.74,6.3-8.31,6.3h-9.98l4.49-22.67zm-13.78,22.67,3.25-16.43l-6.53,16.43h-9.7l4.49-22.67h5.74l-3.17,15.98h0.1l6.27-15.98h9.88l-4.49,22.67h-5.74zm-24.73-7.47c-0.88,4.48-3.33,7.86-8.4,7.86l-0.24-7.41c1.73,0,2.67-1.17,3.07-3.14l2.48-12.51h16.01l-4.49,22.67h-6.61l3.17-15.98h-3.3l-1.69,8.51zm-16.81-9.16h-3.65l-1.55,7.86c-0.25,1.27-0.76,1.95-1.27,2.4h4.43l2.04-10.26zm-10.93,6.79,2.54-12.83h16.01l-3.16,15.98h0.99l-2.1,10.59h-6.36l0.77-3.9h-6.2l-0.77,3.9h-6.36l2.1-10.59h0.41c1.16-0.49,1.83-1.66,2.13-3.15m-18.77-12.83h14.91l-1.08,5.46h-8.46l-0.63,3.22h8.08l-1.09,5.45h-8.08l-0.61,3.08h8.63l-1.08,5.46h-15.08l4.49-22.67zm-17.55,17.99h1.73c1.21,0,2.63-0.58,2.97-2.34,0.39-1.95-0.77-2.3-2-2.3h-1.77l-0.93,4.64zm1.85-9.31h1.65c1.15,0,2.5-0.46,2.84-2.19,0.34-1.68-0.64-2.2-1.82-2.2h-1.8l-0.87,4.39zm-4.49-8.68h10.82c2.97,0,5.65,1.27,4.8,5.59-0.62,3.11-2.2,4.77-4.65,5.55v0.1c2.31,0.42,3.29,2.88,2.85,5.16-1.14,5.71-4.75,6.3-8.32,6.3h-9.98l4.49-22.67zm129.31,12.31h3.7l-0.37-7.44h-0.1l-3.27,7.44zm0-12.31h8.81l1.55,22.67h-6.71l-0.14-4.9h-5.4l-1.98,4.9h-6.38l10.25-22.67zm-146.01,12.31h3.7l-0.38-7.44h-0.1l-3.27,7.44zm-0.1-12.31h8.81l1.55,22.67h-6.71l-0.14-4.9h-5.4l-1.97,4.9h-6.38l10.24-22.67zm-19.98,10.88h1.45c1.58,0,3.26-0.39,3.76-2.92,0.48-2.41-1.07-2.7-2.66-2.7h-1.4l-1.11,5.62zm-4.27-10.88h11.35c2.69,0,5.97,1.69,4.76,7.8-1.16,5.9-4.53,8.34-7.98,8.34h-4.73l-1.29,6.53h-6.61l4.5-22.67zm-7.4,22.67h-6.6l3.17-15.98h-4.42l-3.16,15.98h-6.6l4.49-22.67h17.61l-4.49,22.67zm-22.23-0.52c-1.32,0.45-3.23,0.91-4.91,0.91-5.71,0-9.51-3.96-7.91-12.05,1.51-7.6,7.04-11.4,12.56-11.4,1.82,0,2.85,0.3,4.54,0.72l-1.19,5.97c-0.99-0.45-2.02-0.84-3.13-0.84-2.81,0-5.32,1.98-6.05,5.68-0.78,3.9,0.8,5.88,3.53,5.88,1.22,0,2.44-0.33,3.75-0.88l-1.19,6.01z"/>
	</g>
</svg>
